<svg xmlns="http://www.w3.org/2000/svg" viewBox="0 0 662.91 662.91"><g id="Favicon"><path d="M649.89,275a46.78,46.78,0,0,1-5.49,12.34c-3.26,5.83-5.7,7.88-9.13,12.47-6.81,8.44-12.74,13.76-19.29,20.54a8.45,8.45,0,0,0-1.76,2.94c-.41,1.13-.08,2.73-.76,3.53-7.36,8.67-14.75,17.33-22.36,25.78-5.21,5.78-11.06,11-16.11,16.89-5.83,6.82-11.07,14.15-16.63,21.21-3.44,4.37-7.09,8.59-10.48,13-1.44,1.88-2.42,4.1-3.67,6.12-.88,1.43-1.59,3.63-2.86,4.06-7,2.36-8.74,9.18-12.72,14.13-9.47,11.77-19.33,23.22-28.89,34.91-2,2.48-3.26,5.59-5.22,8.12-6.56,8.5-13,17.1-20.09,25.16-2.08,2.37-6.06,3.07-7.37,3.69-2.31,4.08-3.38,7.53-5.66,9.72-7.72,7.41-15.61,14.69-23.93,21.4-6.42,5.19-13.85,6.88-21.93,3.06-9.23-4.36-16.06-11.15-15.48-21.53.84-14.89,3.58-29.68,5.25-44.54.73-6.44.88-12.94,1.2-19.42.29-5.56-2.85-7.75-7.59-5.78-5.08,2.11-10.38,4.67-14.32,8.38-20.69,19.45-40.88,39.43-61.43,59-12.89,12.29-25.59,24.88-39.33,36.16-11.67,9.59-28.13,4.22-33.46-10-2.73-7.26-4.65-14.84-6.73-22.32-2-7-3.22-7-9.63-3.73-28,14.36-55.58,29.89-87,35.69-11.16,2.06-22.57,2.67-33.79,4.4a11.52,11.52,0,0,0-7,4.19q-15.8,22.81-30.92,46.08c-3.2,4.91-9.38,7.26-14.35,4.16A6.13,6.13,0,0,1,58.73,600c1.29-18.88,7.16-35.86,21-49.51,3.15-3.11,7.34-7.14.87-10.64-20.31-11-25.72-30.25-27.69-50.75-2.48-25.7,3.19-50.11,14-73.57C82,383,105,357.32,134.34,337.2c5-3.45,11.18-5.45,17.06-7.37,1.71-.56,4.27,1.5,6.44,2.36-.74,1.76-1.42,3.55-2.23,5.28-1.51,3.21-3,6.46-4.69,9.57a19.92,19.92,0,0,1-3.73,4.8c-11.2,10.7-23.37,20.53-33.46,32.18-12.63,14.58-23.61,30.64-29.26,49.67a187.35,187.35,0,0,1-7.09,19.62c-2.68,6.33-3.55,11.21,1,17.16,2.93,3.87,3.11,10,3.86,15.26,1.75,12.11,4.11,23.68,15.29,31.4a5.45,5.45,0,0,0,7.31-1q23.86-29,47.91-57.9c12.74-15.28,25.68-30.4,38.45-45.67,10.59-12.65,21-25.49,31.62-38.08q14.28-16.87,29-33.36c25.37-28.33,50.65-56.76,76.41-84.74C341.64,241.75,356,228,370,213.84c1.73-1.76,3.3-3.68,5-5.51l-1.43-2.88c-17.47,1.61-35.09,2.23-52.34,5.11s-34.71,7.12-50,16.54a118.27,118.27,0,0,0-17.92,14c-4.06,3.75-8.46,5-12.72,2.4-4.76-2.93-4.78-7.76-3-13.12,5.6-16.73,19-25,33.86-31.29,36.1-15.32,74-21.16,112.8-16.76,11.77,1.33,18.41-2,26.26-9,20.87-18.57,42.18-36.68,63.73-54.46,19.81-16.34,40-32.19,60.32-47.95,18.34-14.25,37-28.15,55.54-42.06a72.22,72.22,0,0,1,10.43-6c1-.52,2.9-.76,3.55-.18a3.69,3.69,0,0,1,.6,3.54c-3.68,6-7.17,12.18-11.6,17.59-4.58,5.6-10.46,10.15-15.67,15.21-5.6,5.45-11.41,10.68-17.29,15.83-14.76,13-29.46,26-44.56,38.55-7.28,6.06-15.63,10.84-23.07,16.74-4.8,3.81-8.67,8.78-13.24,12.93s-9.59,7.79-14.22,11.87c-5.13,4.51-10.14,9.18-15,14-2,2-3.39,4.68-5.4,6.71-2.87,2.91-5,5.14-3.63,10.27.8,2.94-2.21,7.9-4.87,10.6-5.47,5.55-7.68,9.75-2.62,17.62,8.55,13.28,9.39,28.91,7.51,44.22-4.32,35.11-15.64,67.89-34.77,97.8-8.06,12.61-15.34,25.88-24.72,37.44a438.68,438.68,0,0,1-39.21,42.23c-10.08,9.52-22.18,16.88-33.35,25.25-8.36,6.26-16.43,13-25.06,18.81-7.35,5-4.65,12.88-6.66,19.36-.82,2.62-.14,5.81.33,8.66.38,2.28,1.47,6.29,2.28,6.3,2.62,0,6-.68,7.79-2.43,15.82-15.48,31.28-31.32,47-46.91,16.79-16.68,32.46-34.57,54.43-45.21,11.32-5.48,22-5.52,32.73.19,2.23,1.19,3.92,4.2,4.95,6.74,7.33,18.1,6.41,36.77,3.32,55.53-.88,5.3-2,10.57-2.64,15.9-.22,1.8.62,3.74,1,5.62,2.26-.54,5.08-.41,6.68-1.74,5.16-4.29,10.42-8.66,14.65-13.82,17.13-20.91,33.87-42.13,50.79-63.22,15.79-19.67,31.4-39.5,47.5-58.92,20.09-24.22,39.91-48.73,61.12-71.95l38.2-41.42c1.69-1.84,5.25-1.28,5.49,1.21C653.51,261.09,651.46,269.93,649.89,275ZM277.15,469.83c9.07-8,18.53-15.76,27.35-24.22,14.2-13.62,29.21-26.67,41.64-41.8,17.93-21.84,34.18-45,46.92-70.58,9.19-18.48,15.13-37.65,19.43-57.57,1.21-5.61,3.32-11.13,3.69-16.78.44-6.84-.73-13.78-.85-20.68-.18-9.72-6.65-19.34-14.93-22.78-10,10.48-18.27,22-30.19,30.12a27.18,27.18,0,0,0-4.52,3.91c-5.89,6.34-10.71,14.43-17.83,18.63-6.29,3.7-8.58,9.7-13,14.23-11.22,11.46-20.9,24.42-31.73,36.29-7.75,8.51-16.86,15.79-24.45,24.43-8,9-14.63,19.18-22.18,28.58-4,5-9,9.15-13,14.15-11,13.84-20,29.44-35.09,39.69-.72.49-.59,2.09-1.21,2.88q-7,8.84-14.14,17.53c-.86,1.05-2,1.89-2.83,2.95-3.65,4.56-7.17,9.21-10.89,13.7-.93,1.13-2.67,1.6-3.57,2.75-9.53,12.09-19.12,24.15-28.29,36.52-1.67,2.25-2.82,8-2,8.45,5.48,3.25,2.13,5.7,0,8.53-4,5.31-3.27,7.52,3.22,8.42,4.37.6,9.26,1.7,13.19.4,16.74-5.53,33.26-11.73,49.74-18,6-2.29,11.64-5.73,17.64-8.11,12.18-4.83,12.53-5.51,10.81-18.23-1.51-11.08-2.91-22.21-3.52-33.36-.57-10.51,7.71-17.44,19.43-17.32,10.67.11,16.27,5.94,15.55,17.05C271,456.83,270.09,463.85,277.15,469.83Z"/><path d="M560.6,116V303.84l7-8V109.93Zm0,310.39V572.85H172.46q-6.94,1.78-14.06,3.1c-9.79,1.8-19.72,2.8-29.64,3.9H567.6V418.4Q564.12,422.41,560.6,426.38ZM83.52,95.76V338.7c2.27-2.74,4.6-5.41,7-8V102.76h352.2l8.86-7Z"/></g></svg>